Coordinates
version=1
nRows=26
nColumns=22
inDegrees=yes

Units are S.I. units (second, meters, Newtons, ...)
If the header above contains a line with 'inDegrees', this indicates whether rotational values are in degrees (yes) or radians (no).

endheader
time	pelvis_tilt	pelvis_list	pelvis_rotation	pelvis_tx	pelvis_ty	pelvis_tz	hip_flexion_r	hip_adduction_r	hip_rotation_r	knee_angle_r	ankle_angle_r	subtalar_angle_r	hip_flexion_l	hip_adduction_l	hip_rotation_l	knee_angle_l	ankle_angle_l	subtalar_angle_l	lumbar_extension	lumbar_bending	lumbar_rotation
      0.33000000	    -14.44694141	      7.74942241	    -43.24272807	     -0.31698687	      0.85365839	     -0.09919746	     51.62492669	      9.35133249	    -10.68554885	    -62.36789525	     29.71735446	    -12.34559919	     29.88881234	     -4.87709074	     -5.65802596	   -100.71859235	     11.79519279	     10.01668832	    -12.83044134	      3.28507348	      7.13127778
      0.34000000	    -14.76266473	      7.41441493	    -43.10295937	     -0.28854843	      0.85358953	     -0.07805036	     49.17606582	     10.10770221	     -9.74699017	    -62.79731736	     31.94429715	    -12.34649581	     35.35630921	     -6.46564805	     -4.39829006	   -103.94339326	     12.81714082	      7.99860950	    -12.61150927	      3.58875665	      8.86909355
      0.35000000	    -14.95714197	      6.98919133	    -42.86858252	     -0.25921914	      0.85467957	     -0.05676581	     46.27779780	     10.69065141	     -8.90772664	    -62.78992695	     33.80821594	    -11.86753067	     40.68579601	     -7.74165636	     -2.88632531	   -105.94122190	     13.61418530	      6.41084550	    -12.44091206	      3.87221676	     10.51127831
      0.36000000	    -14.96216794	      6.47352202	    -42.52653875	     -0.22884022	      0.85707668	     -0.03520122	     42.85226542	     11.05616130	     -8.17110472	    -62.29726141	     35.24127495	    -11.03171344	     45.64543596	     -8.66888886	     -1.32696261	   -106.67813524	     14.13114524	      5.33149882	    -12.34965650	      4.07863401	     11.97940941
      0.37000000	    -14.75267182	      5.90307540	    -42.08062773	     -0.19743834	      0.86078717	     -0.01325577	     38.92030739	     11.19860957	     -7.49774118	    -61.31408513	     36.15317648	     -9.82433219	     50.06351767	     -9.27655552	      0.04773374	   -106.18314001	     14.39284303	      4.63739704	    -12.32284379	      4.15064468	     13.24615411
      0.38000000	    -14.37423519	      5.31299957	    -41.50480685	     -0.16508546	      0.86564534	      0.00910120	     34.58050374	     11.13764756	     -6.91244033	    -59.85175646	     36.45763764	     -8.29129307	     53.87469409	     -9.62301232	      1.09785335	   -104.54907347	     14.38852535	      4.26466108	    -12.28438461	      4.09636250	     14.27633474
      0.39000000	    -13.88901197	      4.73715982	    -40.79413831	     -0.13193548	      0.87143671	      0.03184480	     29.98071525	     10.93020223	     -6.41104022	    -57.96931822	     36.02802613	     -6.44391747	     57.05662332	     -9.78189146	      1.72302696	   -101.88152892	     14.12380693	      4.09183034	    -12.17330847	      3.94071561	     15.05778570
      0.40000000	    -13.34301675	      4.19455714	    -40.00036095	     -0.09812082	      0.87793109	      0.05498292	     25.25475851	     10.65630135	     -5.93408128	    -55.76331104	     34.80258958	     -4.31490324	     59.57055687	     -9.84701943	      1.84275004	    -98.28692472	     13.69042485	      4.07604002	    -11.95220337	      3.70798286	     15.64612451
      0.41000000	    -12.80389796	      3.72443566	    -39.19868605	     -0.06385076	      0.88484886	      0.07849791	     20.59220196	     10.39701929	     -5.35705903	    -53.37711692	     32.78072712	     -1.87999266	     61.45369652	     -9.90372122	      1.42378380	    -93.87734268	     12.96585615	      4.27721201	    -11.56597510	      3.41657938	     16.08928365
      0.42000000	    -12.28352713	      3.29266413	    -38.47002452	     -0.02924678	      0.89206206	      0.10236297	     16.08811007	     10.21626780	     -4.57117504	    -50.96958110	     29.90655869	      0.55984667	     62.64951980	    -10.01825352	      0.49821720	    -88.74929065	     12.07179838	      4.87275239	    -11.07105530	      3.11165457	     16.47255928
      0.43000000	    -11.82156208	      2.89382830	    -37.87518639	      0.00555337	      0.89934169	      0.12648769	     11.89949733	     10.14857499	     -3.46514701	    -48.74329649	     26.29840222	      2.80083160	     63.19611278	    -10.20560393	     -0.85294295	    -83.02354723	     10.93857509	      6.07997755	    -10.47275021	      2.83902297	     16.83625641
      0.44000000	    -11.43208621	      2.51591025	    -37.43591044	      0.04049774	      0.90647137	      0.15068487	      8.16343610	     10.17837143	     -2.01226465	    -46.92608416	     22.17963971	      4.52786516	     63.13265300	    -10.41258618	     -2.50871600	    -76.83838927	      9.52879341	      8.06082026	     -9.80359064	      2.64669515	     17.18669194
      0.45000000	    -11.09884133	      2.14189027	    -37.11963490	      0.07557032	      0.91324220	      0.17476493	      4.98772047	     10.26353161	     -0.32052405	    -45.75364437	     17.87123337	      5.54444490	     62.50007318	    -10.53571512	     -4.31390977	    -70.35978284	      7.90647293	     10.85005226	     -9.11849940	      2.55017819	     17.47543758
      0.46000000	    -10.88118607	      1.79398579	    -36.91800934	      0.11067584	      0.91927787	      0.19847624	      2.57881969	     10.39463662	      1.48088367	    -45.47908315	     13.82742394	      5.78381100	     61.48725955	    -10.51901545	     -6.08778960	    -63.82735635	      5.99159493	     14.44761291	     -8.37699048	      2.59684885	     17.71732856
      0.47000000	    -10.71290171	      1.46341053	    -36.74788140	      0.14585223	      0.92442752	      0.22161427	      0.96594059	     10.50149470	      3.09391034	    -46.25171678	     10.41004799	      5.30040043	     60.14335222	    -10.25190060	     -7.66649187	    -57.48740564	      4.00526313	     18.37792226	     -7.66605475	      2.75383701	     17.83222788
      0.48000000	    -10.56349967	      1.16751788	    -36.55153982	      0.18097717	      0.92850484	      0.24402043	      0.21146351	     10.53422719	      4.26001714	    -48.16709283	      7.87546618	      4.31540898	     58.59131535	     -9.69315222	     -8.90239288	    -51.62841525	      2.10021431	     22.11342774	     -7.02977827	      2.97086370	     17.77179438
      0.49000000	    -10.41522321	      0.94043474	    -36.26916261	      0.21597247	      0.93137213	      0.26562459	      0.32549575	     10.41905163	      4.77381912	    -51.16096059	      6.24440772	      3.04229590	     56.96683729	     -8.85564812	     -9.74784045	    -46.54603743	      0.46684378	     25.09600129	     -6.46776104	      3.18745246	     17.48746368
      0.50000000	    -10.22991071	      0.78806890	    -35.85236278	      0.25069675	      0.93303147	      0.28639532	      1.23792868	     10.08276411	      4.55421922	    -55.06200508	      5.38311372	      1.64546940	     55.35340990	     -7.77945275	    -10.21137648	    -42.49432612	     -0.73837143	     26.82687604	     -6.02567393	      3.34548159	     16.96104437
      0.51000000	     -9.97262530	      0.72423302	    -35.29243362	      0.28501735	      0.93356035	      0.30641050	      2.83603231	      9.44640608	      3.68489387	    -59.62318485	      5.11361888	      0.23465851	     53.80022869	     -6.53434392	    -10.41624853	    -39.64290967	     -1.37191040	     26.98304507	     -5.73096806	      3.38024076	     16.18434243
      0.52000000	     -9.61788484	      0.75552578	    -34.60640989	      0.31882510	      0.93306206	      0.32578375	      4.98728495	      8.45894358	      2.35643459	    -64.57819309	      5.30385381	     -1.14617567	     52.32561332	     -5.17575124	    -10.47150431	    -38.04838857	     -1.32520344	     25.45594183	     -5.60278193	      3.24968105	     15.17017366
      0.53000000	     -9.14395540	      0.86818696	    -33.81815890	      0.35209078	      0.93166503	      0.34464675	      7.54754553	      7.10619666	      0.76825921	    -69.66744310	      5.80742038	     -2.51849694	     50.90217915	     -3.73072691	    -10.41194049	    -37.64827788	     -0.48366961	     22.20764258	     -5.66205280	      2.94499575	     13.93939139
      0.54000000	     -8.55058744	      1.09208869	    -33.02328094	      0.38473667	      0.92945172	      0.36319901	     10.44592271	      5.40437535	     -0.78937509	    -74.69724826	      6.60286104	     -3.83878431	     49.49998856	     -2.21951047	    -10.23041550	    -38.25102293	      1.23191839	     17.53766880	     -5.88185715	      2.43086739	     12.58801758
      0.55000000	     -7.84701403	      1.37759029	    -32.26503689	      0.41677475	      0.92653500	      0.38163662	     13.58234683	      3.47509637	     -2.13623905	    -79.46516861	      7.65625101	     -5.13948037	     48.09260207	     -0.69938991	     -9.92493440	    -39.68897210	      3.77104167	     12.00307346	     -6.26966114	      1.76480945	     11.09676654
      0.56000000	     -7.06586697	      1.74383905	    -31.63635273	      0.44815770	      0.92301281	      0.40013446	     16.98159193	      1.41718609	     -3.09004276	    -83.83997634	      8.81135132	     -6.42652495	     46.67936878	      0.79571010	     -9.51742698	    -41.71526669	      6.97102232	      6.44448238	     -6.76949445	      0.94705202	      9.58868293
      0.57000000	     -6.24952953	      2.14510014	    -31.15311152	      0.47893299	      0.91907908	      0.41882217	     20.62086903	     -0.59985513	     -3.59880456	    -87.65753099	     10.01653173	     -7.68773333	     45.25505673	      2.21506385	     -9.02660813	    -44.12770502	     10.57731933	      1.56245322	     -7.34921184	      0.05288843	      8.06049566
      0.58000000	     -5.43398060	      2.54334894	    -30.80780312	      0.50922155	      0.91499307	      0.43772237	     24.46992259	     -2.45682872	     -3.69805494	    -90.77296655	     11.18823771	     -8.84635620	     43.79092136	      3.53752811	     -8.45808428	    -46.71805618	     14.32504963	     -2.24113932	     -7.97436867	     -0.83690076	      6.51344973
